<?xml version="1.0" standalone="no"?>
<!DOCTYPE svg PUBLIC "-//W3C//DTD SVG 20010904//EN"
 "http://www.w3.org/TR/2001/REC-SVG-20010904/DTD/svg10.dtd">
<svg version="1.0" xmlns="http://www.w3.org/2000/svg"
 width="225.000000pt" height="225.000000pt" viewBox="0 0 225.000000 225.000000"
 preserveAspectRatio="xMidYMid meet">

<g transform="translate(0.000000,225.000000) scale(0.100000,-0.100000)"
fill="#000000" stroke="none">
<path d="M420 1115 l0 -365 85 0 85 0 0 365 0 365 -85 0 -85 0 0 -365z"/>
<path d="M710 1400 c0 -64 3 -80 15 -80 12 0 15 16 15 80 0 64 -3 80 -15 80
-12 0 -15 -16 -15 -80z"/>
<path d="M760 1400 l0 -80 50 0 50 0 0 80 0 80 -50 0 -50 0 0 -80z"/>
<path d="M890 1115 l0 -365 85 0 85 0 0 280 0 280 95 0 95 0 0 85 0 85 -180 0
-180 0 0 -365z"/>
<path d="M1362 1398 l3 -83 228 -3 227 -2 0 85 0 85 -230 0 -231 0 3 -82z"/>
<path d="M1368 1115 l3 -85 160 0 159 0 0 85 0 85 -162 0 -163 0 3 -85z"/>
<path d="M1360 835 l0 -85 230 0 230 0 0 85 0 85 -230 0 -230 0 0 -85z"/>
</g>
</svg>
